<?xml version="1.0" encoding="UTF-8" standalone="no"?>
<!-- Created with Inkscape (http://www.inkscape.org/) -->

<svg
   width="5.5485635mm"
   height="5.548564mm"
   viewBox="0 0 5.5485635 5.548564"
   version="1.1"
   id="svg19483"
   xml:space="preserve"
   xmlns="http://www.w3.org/2000/svg"
   xmlns:svg="http://www.w3.org/2000/svg"><defs
     id="defs19480" /><g
     id="g171771"
     transform="translate(-548.02739,-413.01156)"><g
       id="g50273"
       transform="translate(-76.122917,68.365164)"><g
         id="g79664"
         transform="matrix(0.00636833,0,0,0.00636833,622.90391,343.38748)">
		<path
   style="fill:#31af34"
   d="m 631.364,1068.961 c -58.804,0 -115.858,-11.52 -169.574,-34.24 -51.877,-21.942 -98.465,-53.351 -138.468,-93.355 -40.004,-40.004 -71.413,-86.591 -93.355,-138.468 -22.72,-53.716 -34.24,-110.769 -34.24,-169.574 0,-58.805 11.52,-115.857 34.24,-169.574 21.942,-51.877 53.351,-98.465 93.355,-138.468 40.003,-40.004 86.591,-71.413 138.468,-93.355 53.716,-22.72 110.77,-34.24 169.574,-34.24 58.804,0 115.858,11.52 169.574,34.24 51.877,21.942 98.465,53.351 138.468,93.355 40.004,40.004 71.413,86.591 93.356,138.468 22.72,53.716 34.24,110.769 34.24,169.574 0,58.805 -11.52,115.857 -34.24,169.574 -21.943,51.877 -53.352,98.464 -93.356,138.468 -40.003,40.004 -86.591,71.413 -138.468,93.355 -53.716,22.72 -110.769,34.24 -169.574,34.24 z m 0,-843.44 c -55.059,0 -108.464,10.78 -158.732,32.042 -48.559,20.539 -92.173,49.945 -129.629,87.402 -37.457,37.457 -66.864,81.07 -87.402,129.629 -21.261,50.267 -32.042,103.672 -32.042,158.732 0,55.059 10.781,108.464 32.042,158.731 20.539,48.56 49.945,92.173 87.402,129.629 37.456,37.457 81.07,66.863 129.629,87.402 50.268,21.261 103.673,32.042 158.732,32.042 55.059,0 108.464,-10.78 158.732,-32.042 48.559,-20.539 92.173,-49.945 129.629,-87.402 37.457,-37.456 66.864,-81.07 87.402,-129.629 21.261,-50.267 32.042,-103.672 32.042,-158.731 0,-55.06 -10.78,-108.464 -32.042,-158.732 C 986.588,426.035 957.182,382.421 919.725,344.965 882.269,307.508 838.655,278.102 790.096,257.563 739.828,236.301 686.423,225.521 631.364,225.521 Z"
   id="path79658" />
		<circle
   style="fill:#31af34"
   cx="631.36401"
   cy="633.32501"
   r="375.49899"
   id="circle79660" />
		<path
   style="fill:#ffffff"
   d="m 872.744,605.442 v 55.765 c 0,13.2 -10.711,23.91 -23.91,23.91 h -165.68 v 165.669 c 0,13.211 -10.699,23.922 -23.91,23.922 H 603.49 c -13.211,0 -23.91,-10.71 -23.91,-23.922 V 685.118 H 413.9 c -13.211,0 -23.91,-10.71 -23.91,-23.91 v -55.765 c 0,-13.2 10.699,-23.91 23.91,-23.91 h 165.68 v -165.67 c 0,-13.211 10.699,-23.921 23.91,-23.921 h 55.754 c 13.211,0 23.91,10.71 23.91,23.921 v 165.669 h 165.68 c 13.199,0 23.91,10.71 23.91,23.91 z"
   id="path79662" />
	</g></g></g></svg>
