<?xml version="1.0" encoding="UTF-8" standalone="no"?>
<!-- Created with Inkscape (http://www.inkscape.org/) -->

<svg
   width="21.091747mm"
   height="21.091751mm"
   viewBox="0 0 21.091747 21.09175"
   version="1.1"
   id="svg19483"
   xml:space="preserve"
   xmlns:xlink="http://www.w3.org/1999/xlink"
   xmlns="http://www.w3.org/2000/svg"
   xmlns:svg="http://www.w3.org/2000/svg"><defs
     id="defs19480"><circle
       id="SVGID_1_"
       cx="72.387001"
       cy="72.386002"
       r="72.386002" /></defs><g
     id="g10027"
     transform="translate(-436.55808,-85.781069)"><g
       id="g374649"
       transform="matrix(0.14568943,0,0,0.14568943,436.55793,85.781069)">
	<circle
   style="fill:#8dc5d6"
   cx="72.387001"
   cy="72.386002"
   r="72.386002"
   id="circle374607" />
	<g
   id="g374647">
		<defs
   id="defs374610" />
		<clipPath
   id="SVGID_2_">
			<use
   xlink:href="#SVGID_1_"
   style="overflow:visible"
   id="use374612" />
		</clipPath>
		<g
   clip-path="url(#SVGID_2_)"
   id="g374645">
			<path
   style="fill:#2e576d"
   d="m 45.234,75.056 c 0,11.808 -6.479,12.113 -6.018,19.932 0.513,8.659 7.281,8.679 7.281,14.632 0,5.951 -6.224,12.624 -0.71,19.033 24.244,0 26.61,0 26.61,0 V 56.445 Z"
   id="path374615" />
			<path
   style="fill:#2e576d"
   d="m 99.538,74.665 c 0,11.808 6.48,12.113 6.018,19.932 -0.512,8.659 -7.28,8.679 -7.28,14.632 0,5.951 6.223,12.624 0.71,19.033 -24.245,0 -26.611,0 -26.611,0 V 56.055 Z"
   id="path374617" />
			<g
   id="g374639">
				<ellipse
   style="fill:#2e576d"
   cx="72.387001"
   cy="62.721001"
   rx="29.635"
   ry="29.827999"
   id="ellipse374619" />
				<path
   style="fill:#f1c9a5"
   d="m 107.053,116.94 c -4.666,-8.833 -34.666,-14.376 -34.666,-14.376 0,0 -30,5.543 -34.666,14.376 -3.449,12.258 -6.334,27.833 -6.334,27.833 h 41 41 c 0,0 -1.949,-16.7 -6.334,-27.833 z"
   id="path374621" />
				<path
   style="fill:#e4b692"
   d="m 72.387,102.564 c 0,0 30,5.543 34.666,14.376 4.386,11.133 6.334,27.833 6.334,27.833 h -41 z"
   id="path374623" />
				<rect
   x="64.220001"
   y="84.606003"
   style="fill:#f1c9a5"
   width="16.334"
   height="27.336"
   id="rect374625" />
				<rect
   x="72.387001"
   y="84.606003"
   style="fill:#e4b692"
   width="8.1669998"
   height="27.336"
   id="rect374627" />
				<path
   style="opacity:0.1;fill:#ddac8c"
   d="m 64.22,97.273 c 1.469,4.217 7.397,6.634 11.751,6.634 1.575,0 3.108,-0.264 4.583,-0.747 V 84.606 H 64.22 Z"
   id="path374629" />
				<path
   style="fill:#f1c9a5"
   d="m 93.387,67.357 c 0,-17.074 -9.402,-26.783 -21,-26.783 -11.598,0 -21,9.709 -21,26.783 0,17.074 9.402,30.917 21,30.917 11.597,0 21,-13.842 21,-30.917 z"
   id="path374631" />
				<path
   style="fill:#e4b692"
   d="m 90.19,79.195 c -3.807,-0.424 -6.377,-4.783 -5.732,-9.732 0.637,-4.953 4.242,-8.63 8.051,-8.209 3.805,0.422 6.371,4.779 5.729,9.732 -0.639,4.953 -4.241,8.627 -8.048,8.209 z"
   id="path374633" />
				<path
   style="fill:#f1c9a5"
   d="m 46.685,70.986 c -0.643,-4.953 1.924,-9.311 5.727,-9.732 3.81,-0.421 7.416,3.256 8.055,8.209 0.642,4.949 -1.93,9.309 -5.734,9.732 -3.808,0.418 -7.41,-3.256 -8.048,-8.209 z"
   id="path374635" />
				<path
   style="fill:#e4b692"
   d="m 93.387,67.357 c 0,-17.074 -9.402,-26.783 -21,-26.783 v 57.7 c 11.597,0 21,-13.842 21,-30.917 z"
   id="path374637" />
			</g>
			<path
   style="fill:#2e576d"
   d="m 95.12,65.43 c 0,-0.051 0.003,-0.1 0.003,-0.15 0,-13.245 -8.967,-27.222 -21.518,-27.222 -12.551,0 -23.931,13.976 -23.931,27.221 0,0.051 0.003,0.1 0.003,0.15 H 95.12 Z"
   id="path374641" />
			<path
   style="fill:#fa582a"
   d="m 113.387,144.773 c 0,0 -1.948,-16.7 -6.334,-27.833 -2.559,-4.845 -12.734,-8.696 -21.406,-11.189 l -13.291,10.432 -13.825,-10.26 c -8.535,2.497 -18.31,6.284 -20.81,11.018 -3.449,12.258 -6.334,27.833 -6.334,27.833 h 41 41 z"
   id="path374643" />
		</g>
	</g>
</g></g></svg>
