<?xml version="1.0" encoding="UTF-8" standalone="no"?>
<!-- Created with Inkscape (http://www.inkscape.org/) -->

<svg
   width="14.32348mm"
   height="14.424234mm"
   viewBox="0 0 14.32348 14.424234"
   version="1.1"
   id="svg19483"
   xml:space="preserve"
   xmlns="http://www.w3.org/2000/svg"
   xmlns:svg="http://www.w3.org/2000/svg"><defs
     id="defs19480"><clipPath
       clipPathUnits="userSpaceOnUse"
       id="clipPath84359"><g
         id="g84363"
         transform="matrix(2.8346458,0,0,-2.8346457,-3306.5557,230.70362)"><path
           d="M 961.04107,13.71389 H 1225.6244 V 190.10278 H 961.04107 Z"
           id="path84361"
           style="stroke-width:0.352778" /></g></clipPath><clipPath
       clipPathUnits="userSpaceOnUse"
       id="clipPath84365"><g
         id="g84369"
         transform="matrix(2.8346458,0,0,-2.8346457,-3316.501,242.72862)"><path
           d="M 961.04107,13.71389 H 1225.6244 V 190.10278 H 961.04107 Z"
           id="path84367"
           style="stroke-width:0.352778" /></g></clipPath><clipPath
       clipPathUnits="userSpaceOnUse"
       id="clipPath84371"><g
         id="g84375"
         transform="matrix(2.8346458,0,0,-2.8346457,-3316.501,242.72862)"><path
           d="M 961.04107,13.71389 H 1225.6244 V 190.10278 H 961.04107 Z"
           id="path84373"
           style="stroke-width:0.352778" /></g></clipPath></defs><g
     id="g171771"
     transform="translate(-528.79271,-422.22591)"><g
       id="g50273"
       transform="translate(-76.122917,68.365164)"><g
         id="g74341"
         transform="matrix(0.04973963,0,0,-0.04625112,615.69978,356.74549)"><path
           d="m 0,0 -100.846,-35.372 -21.43,61.096 100.846,35.372 z"
           style="fill:#ffd72e;fill-opacity:1;fill-rule:nonzero;stroke:none"
           id="path74343" /></g><g
         id="g74345"
         transform="matrix(0.04973963,0,0,-0.04625112,615.69978,356.74549)"><path
           d="m 0,0 -100.846,-35.372 -21.43,61.096 100.846,35.372 z"
           style="fill:none;stroke:#00208b;stroke-width:2;stroke-linecap:butt;stroke-linejoin:miter;stroke-miterlimit:10;stroke-dasharray:none;stroke-opacity:1"
           id="path74347" /></g><g
         id="g74349"
         transform="matrix(0.04973963,0,0,-0.04625112,614.48717,361.58162)"><path
           d="m 0,0 -87.386,-30.651 -29.987,85.493 87.386,30.651 z"
           style="fill:#7999e6;fill-opacity:1;fill-rule:nonzero;stroke:none"
           id="path74351" /></g><g
         id="g74353"
         transform="matrix(0.04973963,0,0,-0.04625112,614.48717,361.58162)"><path
           d="m 0,0 -87.386,-30.651 -29.987,85.493 87.386,30.651 z"
           style="fill:none;stroke:#00208b;stroke-width:2;stroke-linecap:butt;stroke-linejoin:miter;stroke-miterlimit:10;stroke-dasharray:none;stroke-opacity:1"
           id="path74355" /></g><g
         id="g74357"
         transform="matrix(0.04973963,0,0,-0.04625112,611.83078,359.51488)"><path
           d="m 0,0 -10.18,29.023 -20.19,-7.081 10.18,-29.024 v 0 l 3.614,-2.224 1.433,3.995 3.615,-2.225 1.433,3.995 3.614,-2.224 1.433,3.995 3.615,-2.225 z"
           style="fill:#ffae00;fill-opacity:1;fill-rule:nonzero;stroke:none"
           id="path74359" /></g><g
         id="g74361"
         transform="matrix(0.04973963,0,0,-0.04625112,611.83078,359.51488)"><path
           d="m 0,0 -10.18,29.023 -20.19,-7.081 10.18,-29.024 v 0 l 3.614,-2.224 1.433,3.995 3.615,-2.225 1.433,3.995 3.614,-2.224 1.433,3.995 3.615,-2.225 z"
           style="fill:none;stroke:#00208b;stroke-width:1.5;stroke-linecap:butt;stroke-linejoin:miter;stroke-miterlimit:10;stroke-dasharray:none;stroke-opacity:1"
           id="path74363" /></g><g
         id="g74365"
         transform="matrix(0.04973963,0,0,-0.04625112,611.08976,361.89496)"><path
           d="m 0,0 -19.717,-6.916 -4.205,11.988 19.717,6.916 z"
           style="fill:#3d62ff;fill-opacity:1;fill-rule:nonzero;stroke:none"
           id="path74367" /></g><g
         id="g74369"
         transform="matrix(0.04973963,0,0,-0.04625112,611.08976,361.89496)"><path
           d="m 0,0 -19.717,-6.916 -4.205,11.988 19.717,6.916 z"
           style="fill:none;stroke:#00208b;stroke-width:1;stroke-linecap:butt;stroke-linejoin:miter;stroke-miterlimit:10;stroke-dasharray:none;stroke-opacity:1"
           id="path74371" /></g><g
         id="g74373"
         transform="matrix(0.04973963,0,0,-0.04625112,611.26058,362.04408)"><path
           d="m 0,0 -21.768,-7.635 -0.442,1.262 21.767,7.635 z"
           style="fill:#00208b;fill-opacity:1;fill-rule:nonzero;stroke:none"
           id="path74375" /></g><g
         id="g74377"
         transform="matrix(0.04973963,0,0,-0.04625112,611.31421,362.18634)"><path
           d="m 0,0 -21.768,-7.635 -0.442,1.262 21.767,7.635 z"
           style="fill:#00208b;fill-opacity:1;fill-rule:nonzero;stroke:none"
           id="path74379" /></g><g
         id="g74381"
         transform="matrix(0.04973963,0,0,-0.04625112,611.36789,362.3286)"><path
           d="m 0,0 -21.768,-7.635 -0.442,1.262 21.767,7.635 z"
           style="fill:#00208b;fill-opacity:1;fill-rule:nonzero;stroke:none"
           id="path74383" /></g><g
         id="g74385"
         transform="matrix(0.04973963,0,0,-0.04625112,611.21404,355.98001)"><path
           d="m 0,0 -19.717,-6.916 -4.205,11.988 19.717,6.916 z"
           style="fill:#3d62ff;fill-opacity:1;fill-rule:nonzero;stroke:none"
           id="path74387" /></g><g
         id="g74389"
         transform="matrix(0.04973963,0,0,-0.04625112,611.21404,355.98001)"><path
           d="m 0,0 -19.717,-6.916 -4.205,11.988 19.717,6.916 z"
           style="fill:none;stroke:#00208b;stroke-width:1;stroke-linecap:butt;stroke-linejoin:miter;stroke-miterlimit:10;stroke-dasharray:none;stroke-opacity:1"
           id="path74391" /></g><g
         id="g74393"
         transform="matrix(0.04973963,0,0,-0.04625112,611.38485,356.12914)"><path
           d="m 0,0 -21.768,-7.635 -0.442,1.262 21.767,7.635 z"
           style="fill:#7999e6;fill-opacity:1;fill-rule:nonzero;stroke:none"
           id="path74395" /></g><g
         id="g74397"
         transform="matrix(0.04973963,0,0,-0.04625112,611.43851,356.2714)"><path
           d="m 0,0 -21.768,-7.635 -0.442,1.262 21.767,7.635 z"
           style="fill:#7999e6;fill-opacity:1;fill-rule:nonzero;stroke:none"
           id="path74399" /></g><g
         id="g74401"
         transform="matrix(0.04973963,0,0,-0.04625112,611.49219,356.41367)"><path
           d="m 0,0 -21.768,-7.635 -0.442,1.262 21.767,7.635 z"
           style="fill:#7999e6;fill-opacity:1;fill-rule:nonzero;stroke:none"
           id="path74403" /></g><g
         id="g74405"
         transform="matrix(0.04973963,0,0,-0.04625112,615.3001,356.58909)"><path
           d="M 0,0 -37.068,-13.002 -42.047,1.195 -4.979,14.196 Z"
           style="fill:#7999e6;fill-opacity:1;fill-rule:nonzero;stroke:none"
           id="path74407" /></g><g
         id="g74409"
         transform="matrix(0.04973963,0,0,-0.04625112,615.3001,356.58909)"><path
           d="M 0,0 -37.068,-13.002 -42.047,1.195 -4.979,14.196 Z"
           style="fill:none;stroke:#00208b;stroke-width:1;stroke-linecap:butt;stroke-linejoin:miter;stroke-miterlimit:10;stroke-dasharray:none;stroke-opacity:1"
           id="path74411" /></g><g
         id="g74421"
         transform="matrix(0.04973963,0,0,-0.04625112,617.2585,362.63254)"
         clip-path="url(#clipPath84371)"><path
           d="m 0,0 -15.339,-5.265 -1.346,23.254 17.656,4.984 z m -118.735,-75.556 -15.632,-3.792 c 5.722,11.24 5.585,21.356 4.936,26.575 l 32.62,11.197 c -1.313,-7.89 -5.916,-22.6 -21.924,-33.98 m 115.557,8.405 c 1.453,-5.991 -2.239,-12.047 -8.229,-13.5 -5.991,-1.453 -12.047,2.239 -13.5,8.23 -1.453,5.99 2.238,12.046 8.229,13.499 5.991,1.454 12.047,-2.238 13.5,-8.229 m -140.585,-45.604 c -5.991,-1.453 -12.047,2.239 -13.5,8.229 -1.453,5.991 2.238,12.047 8.229,13.5 5.991,1.453 12.047,-2.238 13.5,-8.229 1.453,-5.991 -2.238,-12.047 -8.229,-13.5 m -17.046,171.42 14.446,-28.94 -28.574,-6.332 -18.375,29.586 z M 2.652,62.747 -18.997,57.949 -20.46,83.22 3.695,87.446 Z M -18.536,49.969 2.307,54.587 1.322,31.272 -17.152,26.057 Z m -31.669,-33.242 -4.651,25.193 28.515,6.319 1.411,-24.377 z m -52.611,14.565 9.802,-26.649 -28.056,-7.919 -13.718,27.483 z m 40.25,8.919 4.733,-25.637 -27.563,-7.78 -9.645,26.221 z m -1.433,7.766 -33.791,-7.488 -10.092,27.436 38.943,6.813 z m 35.713,33.874 1.483,-25.631 -29.486,-6.535 -4.876,26.413 z m -87.497,-15.308 10.218,-27.777 -32.856,-7.281 -14.277,28.599 z m -54.741,-50.256 27.794,6.16 13.93,-27.906 -24.009,-6.777 z m 38.303,-61.674 -16.255,26.174 23.264,6.567 12.927,-25.898 z m 38.605,13.252 c -0.007,-0.003 -0.014,-0.005 -0.02,-0.007 l -11.119,-3.817 -12.727,25.495 27.201,7.678 9.211,-25.043 z m 20.012,6.869 -9.06,24.631 26.27,7.415 4.537,-24.581 z m 29.294,10.056 -4.457,24.143 24.304,6.861 1.372,-23.72 z M 11.787,92.011 c 0.051,1.193 -0.442,2.346 -1.34,3.133 -0.898,0.788 -2.105,1.126 -3.282,0.92 l -32.389,-5.666 c -0.008,-0.002 -0.015,-0.003 -0.023,-0.005 L -159.214,66.956 c -0.011,-0.002 -0.022,-0.004 -0.032,-0.006 l -38.553,-6.745 -16.039,25.824 c -0.086,0.139 -0.182,0.268 -0.282,0.392 -0.026,0.033 -0.054,0.065 -0.082,0.097 -0.082,0.095 -0.168,0.186 -0.257,0.272 -0.027,0.026 -0.053,0.052 -0.081,0.077 -0.238,0.216 -0.497,0.399 -0.774,0.548 -0.033,0.018 -0.067,0.034 -0.101,0.051 -0.11,0.056 -0.223,0.106 -0.338,0.151 -0.037,0.015 -0.073,0.03 -0.11,0.043 -0.146,0.052 -0.295,0.098 -0.446,0.132 -0.02,0.005 -0.041,0.007 -0.062,0.012 -0.134,0.028 -0.27,0.049 -0.406,0.063 -0.043,0.005 -0.085,0.008 -0.127,0.011 -0.14,0.011 -0.281,0.014 -0.422,0.009 -0.014,0 -0.028,0.002 -0.043,0.001 l -0.038,-0.001 c -0.008,-0.001 -0.016,-0.001 -0.024,-0.001 l -25.702,-1.172 c -1.18,-0.055 -2.27,-0.631 -2.977,-1.574 -0.707,-0.942 -0.956,-2.152 -0.678,-3.298 l 3.255,-13.42 c 0.455,-1.876 2.2,-3.148 4.125,-3.006 l 27.807,2.054 8.449,-13.604 c 0.034,-0.059 0.071,-0.118 0.109,-0.175 l 45.112,-72.637 c 0.008,-0.012 0.015,-0.025 0.023,-0.037 l 20.308,-32.699 c 0.573,-2.651 2.761,-16.104 -7.645,-30.304 l -5.649,-1.371 c -10.219,-2.478 -16.517,-12.809 -14.038,-23.029 2.479,-10.219 12.81,-16.517 23.029,-14.038 10.219,2.479 16.517,12.81 14.038,23.029 -0.984,4.056 -3.207,7.491 -6.167,10.008 l 17.896,4.341 c 0.005,0.001 0.011,0.001 0.016,0.003 0.005,0.001 0.009,0.003 0.014,0.004 l 84.427,20.479 c -1.478,-3.594 -1.881,-7.666 -0.897,-11.722 2.478,-10.219 12.81,-16.517 23.029,-14.038 10.219,2.479 16.517,12.81 14.038,23.029 -2.479,10.22 -12.81,16.517 -23.029,14.039 l -84.151,-20.412 c 11.395,13.082 13.729,26.974 14.187,32.94 l 42.445,14.571 c 0.001,0 0.002,0 0.002,0 L 5.11,-6.589 c 1.536,0.527 2.592,1.942 2.661,3.565 l 1.316,31.137 c 0,0.016 10e-4,0.033 0.002,0.05 z"
           style="fill:#3d62ff;fill-opacity:1;fill-rule:nonzero;stroke:none"
           id="path74423" /></g><g
         id="g74425"
         transform="matrix(0.04973963,0,0,-0.04625112,617.2585,362.63254)"
         clip-path="url(#clipPath84365)"><path
           d="m 0,0 -15.339,-5.265 -1.346,23.254 17.656,4.984 z m -118.735,-75.556 -15.632,-3.792 c 5.722,11.24 5.585,21.356 4.936,26.575 l 32.62,11.197 c -1.313,-7.89 -5.916,-22.6 -21.924,-33.98 z m 115.557,8.405 c 1.453,-5.991 -2.239,-12.047 -8.229,-13.5 -5.991,-1.453 -12.047,2.239 -13.5,8.23 -1.453,5.99 2.238,12.046 8.229,13.499 5.991,1.454 12.047,-2.238 13.5,-8.229 z m -140.585,-45.604 c -5.991,-1.453 -12.047,2.239 -13.5,8.229 -1.453,5.991 2.238,12.047 8.229,13.5 5.991,1.453 12.047,-2.238 13.5,-8.229 1.453,-5.991 -2.238,-12.047 -8.229,-13.5 z m -17.046,171.42 14.446,-28.94 -28.574,-6.332 -18.375,29.586 z M 2.652,62.747 -18.997,57.949 -20.46,83.22 3.695,87.446 Z M -18.536,49.969 2.307,54.587 1.322,31.272 -17.152,26.057 Z m -31.669,-33.242 -4.651,25.193 28.515,6.319 1.411,-24.377 z m -52.611,14.565 9.802,-26.649 -28.056,-7.919 -13.718,27.483 z m 40.25,8.919 4.733,-25.637 -27.563,-7.78 -9.645,26.221 z m -1.433,7.766 -33.791,-7.488 -10.092,27.436 38.943,6.813 z m 35.713,33.874 1.483,-25.631 -29.486,-6.535 -4.876,26.413 z m -87.497,-15.308 10.218,-27.777 -32.856,-7.281 -14.277,28.599 z m -54.741,-50.256 27.794,6.16 13.93,-27.906 -24.009,-6.777 z m 38.303,-61.674 -16.255,26.174 23.264,6.567 12.927,-25.898 z m 38.605,13.252 c -0.007,-0.003 -0.014,-0.005 -0.02,-0.007 l -11.119,-3.817 -12.727,25.495 27.201,7.678 9.211,-25.043 z m 20.012,6.869 -9.06,24.631 26.27,7.415 4.537,-24.581 z m 29.294,10.056 -4.457,24.143 24.304,6.861 1.372,-23.72 z M 11.787,92.011 c 0.051,1.193 -0.442,2.346 -1.34,3.133 -0.898,0.788 -2.105,1.126 -3.282,0.92 l -32.389,-5.666 c -0.008,-0.002 -0.015,-0.003 -0.023,-0.005 L -159.214,66.956 c -0.011,-0.002 -0.022,-0.004 -0.032,-0.006 l -38.553,-6.745 -16.039,25.824 c -0.086,0.139 -0.182,0.268 -0.282,0.392 -0.026,0.033 -0.054,0.065 -0.082,0.097 -0.082,0.095 -0.168,0.186 -0.257,0.272 -0.027,0.026 -0.053,0.052 -0.081,0.077 -0.238,0.216 -0.497,0.399 -0.774,0.548 -0.033,0.018 -0.067,0.034 -0.101,0.051 -0.11,0.056 -0.223,0.106 -0.338,0.151 -0.037,0.015 -0.073,0.03 -0.11,0.043 -0.146,0.052 -0.295,0.098 -0.446,0.132 -0.02,0.005 -0.041,0.007 -0.062,0.012 -0.134,0.028 -0.27,0.049 -0.406,0.063 -0.043,0.005 -0.085,0.008 -0.127,0.011 -0.14,0.011 -0.281,0.014 -0.422,0.009 -0.014,0 -0.028,0.002 -0.043,0.001 l -0.038,-0.001 c -0.008,-0.001 -0.016,-0.001 -0.024,-0.001 l -25.702,-1.172 c -1.18,-0.055 -2.27,-0.631 -2.977,-1.574 -0.707,-0.942 -0.956,-2.152 -0.678,-3.298 l 3.255,-13.42 c 0.455,-1.876 2.2,-3.148 4.125,-3.006 l 27.807,2.054 8.449,-13.604 c 0.034,-0.059 0.071,-0.118 0.109,-0.175 l 45.112,-72.637 c 0.008,-0.012 0.015,-0.025 0.023,-0.037 l 20.308,-32.699 c 0.573,-2.651 2.761,-16.104 -7.645,-30.304 l -5.649,-1.371 c -10.219,-2.478 -16.517,-12.809 -14.038,-23.029 2.479,-10.219 12.81,-16.517 23.029,-14.038 10.219,2.479 16.517,12.81 14.038,23.029 -0.984,4.056 -3.207,7.491 -6.167,10.008 l 17.896,4.341 c 0.005,0.001 0.011,0.001 0.016,0.003 0.005,0.001 0.009,0.003 0.014,0.004 l 84.427,20.479 c -1.478,-3.594 -1.881,-7.666 -0.897,-11.722 2.478,-10.219 12.81,-16.517 23.029,-14.038 10.219,2.479 16.517,12.81 14.038,23.029 -2.479,10.22 -12.81,16.517 -23.029,14.039 l -84.151,-20.412 c 11.395,13.082 13.729,26.974 14.187,32.94 l 42.445,14.571 c 0.001,0 0.002,0 0.002,0 L 5.11,-6.589 c 1.536,0.527 2.592,1.942 2.661,3.565 l 1.316,31.137 c 0,0.016 10e-4,0.033 0.002,0.05 z"
           style="fill:none;stroke:#00208b;stroke-width:2.5;stroke-linecap:butt;stroke-linejoin:miter;stroke-miterlimit:10;stroke-dasharray:none;stroke-opacity:1"
           id="path74427" /></g><g
         id="g74429"
         transform="matrix(0.04973963,0,0,-0.04625112,616.76378,362.07639)"
         clip-path="url(#clipPath84359)"><path
           d="m 0,0 18.986,-55.289 12.306,9.843 10.886,-13.61 6.168,4.933 -10.886,13.61 12.307,9.843 z"
           style="fill:#ffd72e;fill-opacity:1;fill-rule:nonzero;stroke:none"
           id="path74431" /></g></g></g></svg>
