<?xml version="1.0" encoding="UTF-8" standalone="no"?>
<!-- Created with Inkscape (http://www.inkscape.org/) -->

<svg
   width="14.895926mm"
   height="11.856707mm"
   viewBox="0 0 14.895926 11.856707"
   version="1.1"
   id="svg19483"
   xml:space="preserve"
   xmlns="http://www.w3.org/2000/svg"
   xmlns:svg="http://www.w3.org/2000/svg"><defs
     id="defs19480" /><g
     id="g171771"
     transform="translate(-546.61077,-424.08353)"><g
       id="g50273"
       transform="translate(-76.122917,68.365164)"><g
         id="g110750"
         transform="matrix(0.02681284,0,0,0.02681284,615.13966,346.60472)">
		<path
   style="fill:none"
   d="m 624.284,680.431 35.308,35.311 c 6.233,6.215 13.49,10.637 21.636,13.484 8.122,2.832 17.17,4.012 26.611,3.383 18.865,-1.241 39.085,-9.865 55.34,-26.121 12.195,-12.195 20.093,-26.593 23.791,-41.021 3.728,-14.429 3.195,-28.747 -1.053,-40.93 -2.845,-8.15 -7.287,-15.387 -13.503,-21.618 L 636.431,466.918 c -6.234,-6.215 -13.484,-10.636 -21.618,-13.484 -8.152,-2.832 -17.188,-4.031 -26.611,-3.401 -3.552,0.236 -7.159,0.741 -10.76,1.495 l 55.842,55.861 c 11.632,11.598 20.063,25.491 25.195,40.27 5.144,14.803 7.062,30.493 6.022,46.117 -2.107,31.125 -15.857,62.154 -40.217,86.655 z"
   id="path110740" />
		<path
   style="fill:none"
   d="m 532.607,476.438 c -12.067,12.134 -19.887,26.435 -23.555,40.755 -3.71,14.446 -3.195,28.747 1.072,40.93 2.845,8.149 7.268,15.402 13.484,21.618 l 65.804,65.822 c 12.056,-12.147 19.875,-26.436 23.561,-40.755 3.71,-14.447 3.177,-28.747 -1.071,-40.93 -2.85,-8.149 -7.268,-15.403 -13.49,-21.618 z"
   id="path110742" />
		<path
   style="fill:none"
   d="m 497.723,441.568 -35.296,-35.31 c -6.246,-6.197 -13.484,-10.637 -21.636,-13.484 -8.134,-2.832 -17.163,-4.031 -26.605,-3.401 -18.882,1.247 -39.102,9.868 -55.34,26.139 -12.213,12.194 -20.111,26.593 -23.827,41.006 -3.71,14.443 -3.177,28.75 1.072,40.945 2.845,8.149 7.286,15.387 13.502,21.618 l 136.013,136.002 c 6.216,6.197 13.472,10.636 21.606,13.484 8.134,2.832 17.182,4.012 26.611,3.383 3.553,-0.236 7.154,-0.723 10.76,-1.477 l -55.848,-55.848 c -11.626,-11.611 -20.056,-25.504 -25.188,-40.283 -5.144,-14.803 -7.069,-30.493 -6.028,-46.117 2.107,-31.126 15.863,-62.154 40.204,-86.657 z"
   id="path110744" />
		<path
   style="fill:#616e7d"
   d="m 589.412,645.563 34.872,34.869 c 24.36,-24.502 38.11,-55.53 40.216,-86.656 1.04,-15.623 -0.878,-31.313 -6.022,-46.117 -5.133,-14.779 -13.563,-28.672 -25.195,-40.27 L 577.441,451.528 538.732,412.819 497.3,371.389 c -11.626,-11.629 -25.509,-20.063 -40.283,-25.191 -22.217,-7.729 -46.371,-8.182 -69.441,-2.251 -23.065,5.919 -45.221,18.301 -63.619,36.682 -24.517,24.547 -38.346,55.685 -40.452,86.938 -1.059,15.608 0.866,31.313 6.009,46.104 5.144,14.791 13.581,28.669 25.207,40.283 l 136.002,135.999 c 11.614,11.611 25.491,20.047 40.283,25.177 22.217,7.725 46.353,8.182 69.423,2.266 7.758,-1.997 15.408,-4.784 22.864,-8.213 l -38.709,-38.709 c -3.607,0.754 -7.207,1.241 -10.76,1.477 -9.429,0.629 -18.477,-0.551 -26.611,-3.383 -8.134,-2.848 -15.39,-7.287 -21.606,-13.484 L 349.593,519.081 c -6.216,-6.231 -10.658,-13.469 -13.502,-21.618 -4.249,-12.195 -4.781,-26.502 -1.072,-40.945 3.716,-14.413 11.614,-28.811 23.827,-41.006 16.238,-16.271 36.458,-24.892 55.34,-26.139 9.442,-0.63 18.471,0.569 26.605,3.401 8.152,2.848 15.39,7.287 21.636,13.484 l 35.296,35.31 34.884,34.869 65.804,65.822 c 6.221,6.215 10.639,13.469 13.49,21.618 4.249,12.183 4.781,26.484 1.071,40.93 -3.685,14.32 -11.504,28.609 -23.56,40.756 z"
   id="path110746" />
		<path
   style="fill:#aad4c8"
   d="m 532.607,476.438 -34.884,-34.869 c -24.341,24.502 -38.097,55.531 -40.204,86.657 -1.041,15.623 0.884,31.313 6.028,46.117 5.132,14.779 13.562,28.671 25.188,40.283 l 55.848,55.848 38.709,38.709 41.433,41.429 c 11.607,11.629 25.491,20.048 40.282,25.192 22.217,7.728 46.353,8.182 69.423,2.252 23.083,-5.932 45.221,-18.302 63.62,-36.694 24.517,-24.535 38.346,-55.692 40.452,-86.926 1.041,-15.623 -0.878,-31.295 -6.022,-46.117 -5.132,-14.779 -13.568,-28.656 -25.195,-40.271 L 671.302,432.064 c -11.632,-11.626 -25.491,-20.078 -40.283,-25.207 -22.223,-7.711 -46.359,-8.182 -69.429,-2.266 -7.753,2 -15.421,4.799 -22.859,8.228 l 38.709,38.709 c 3.601,-0.754 7.208,-1.259 10.76,-1.495 9.423,-0.63 18.459,0.569 26.611,3.401 8.134,2.848 15.384,7.269 21.618,13.484 L 772.414,602.92 c 6.216,6.231 10.658,13.469 13.503,21.618 4.248,12.183 4.781,26.501 1.053,40.93 -3.698,14.428 -11.596,28.826 -23.791,41.021 -16.256,16.256 -36.475,24.88 -55.34,26.121 -9.441,0.629 -18.489,-0.551 -26.611,-3.383 -8.146,-2.848 -15.403,-7.269 -21.636,-13.484 l -35.308,-35.311 -34.872,-34.869 -65.804,-65.822 c -6.216,-6.216 -10.64,-13.469 -13.484,-21.618 -4.267,-12.183 -4.781,-26.484 -1.072,-40.93 3.668,-14.32 11.488,-28.621 23.555,-40.755 z"
   id="path110748" />
	</g></g></g></svg>
