<?xml version="1.0" encoding="UTF-8" standalone="no"?>
<!-- Created with Inkscape (http://www.inkscape.org/) -->

<svg
   width="5.5485635mm"
   height="5.548564mm"
   viewBox="0 0 5.5485635 5.548564"
   version="1.1"
   id="svg19483"
   xml:space="preserve"
   xmlns="http://www.w3.org/2000/svg"
   xmlns:svg="http://www.w3.org/2000/svg"><defs
     id="defs19480" /><g
     id="g171771"
     transform="translate(-540.83355,-413.01156)"><g
       id="g50273"
       transform="translate(-76.122917,68.365164)"><g
         id="g96300"
         transform="matrix(0.02406926,0,0,0.02406926,593.6829,337.52436)"><path
           style="fill:#ff0000;stroke-width:0.264583"
           d="m 1082.2058,526.42289 c -15.5585,0 -30.6538,-3.048 -44.8664,-9.05933 -13.7258,-5.80549 -26.052,-14.11579 -36.6363,-24.70018 -10.58422,-10.58439 -18.89472,-22.91053 -24.70022,-36.63632 -6.0111,-14.21236 -9.0591,-29.30737 -9.0591,-44.86619 0,-15.55883 3.0477,-30.65383 9.0593,-44.86646 5.8055,-13.72579 14.1161,-26.05219 24.70022,-36.63632 10.5844,-10.58439 22.9106,-18.89469 36.6363,-24.70018 14.2127,-6.01133 29.3079,-9.05933 44.8665,-9.05933 15.5588,0 30.6541,3.048 44.8662,9.05933 13.726,5.80549 26.0522,14.11579 36.6366,24.70018 10.5841,10.58439 18.8947,22.91053 24.7002,36.63632 6.0113,14.21236 9.0593,29.30763 9.0593,44.86646 0,15.55882 -3.048,30.65383 -9.0593,44.86645 -5.8055,13.72579 -14.1161,26.05193 -24.7002,36.63633 -10.5844,10.58439 -22.9106,18.89468 -36.6366,24.70017 -14.2126,6.01107 -29.3076,9.05907 -44.8665,9.05907 z m 0,-223.16016 c -14.5677,0 -28.6977,2.85221 -41.9978,8.47778 -12.8479,5.43427 -24.3874,13.21461 -34.2977,23.12511 -9.91022,9.91023 -17.69082,21.44977 -23.12482,34.29767 -5.6253,13.29981 -8.4778,27.42988 -8.4778,41.99784 0,14.56796 2.8522,28.69777 8.4778,41.99758 5.4343,12.84817 13.2146,24.38744 23.12482,34.29767 9.9103,9.9105 21.4498,17.69084 34.2977,23.12511 13.3001,5.62531 27.4301,8.47778 41.9978,8.47778 14.568,0 28.6981,-2.85221 41.9979,-8.47778 12.8481,-5.43427 24.3874,-13.21461 34.2979,-23.12511 9.9102,-9.91023 17.6908,-21.44977 23.1249,-34.29767 5.6253,-13.29981 8.4777,-27.42988 8.4777,-41.99758 0,-14.56796 -2.8522,-28.69776 -8.4777,-41.99784 -5.4343,-12.8479 -13.2147,-24.38744 -23.1249,-34.29767 -9.9105,-9.9105 -21.4498,-17.69084 -34.2979,-23.12511 -13.3001,-5.62557 -27.4299,-8.47778 -41.9979,-8.47778 z"
           id="path79650-3" /><circle
           style="fill:#ff0000;stroke-width:0.264583"
           cx="1082.2058"
           cy="411.16086"
           r="99.350777"
           id="circle79652-6" /><path
           style="fill:#ffffff;stroke-width:0.264583"
           d="m 1139.7442,424.86364 h -115.0765 c -3.4941,0 -6.3267,-2.83263 -6.3267,-6.32672 v -14.75237 c 0,-3.49409 2.8326,-6.32672 6.3267,-6.32672 h 115.0765 c 3.4941,0 6.3268,2.83263 6.3268,6.32672 v 14.75237 c -3e-4,3.49409 -2.8327,6.32672 -6.3268,6.32672 z"
           id="path79654-8" /></g></g></g></svg>
