<?xml version="1.0" encoding="UTF-8" standalone="no"?>
<!-- Created with Inkscape (http://www.inkscape.org/) -->

<svg
   width="10.026068mm"
   height="10.026117mm"
   viewBox="0 0 10.026068 10.026117"
   version="1.1"
   id="svg19483"
   xml:space="preserve"
   xmlns="http://www.w3.org/2000/svg"
   xmlns:svg="http://www.w3.org/2000/svg"><defs
     id="defs19480" /><g
     id="g171771"
     transform="translate(-528.99718,-411.7333)"><g
       id="g50273"
       transform="translate(-76.122917,68.365164)"><g
         id="g115449"
         transform="matrix(0.04453674,0,0,0.04453674,602.33303,329.56711)"
         style="fill:#38b23b;fill-opacity:1">
			<path
   style="fill:#38b23b;fill-opacity:1"
   d="m 282.016,439.368 c 0.874,-5.628 5.683,-11.048 5.683,-16.928 0,-5.879 -4.808,-11.3 -5.683,-16.928 -0.918,-5.781 1.967,-12.425 0.197,-17.867 -1.792,-5.541 -8.043,-9.212 -10.655,-14.327 -2.634,-5.169 -1.956,-12.382 -5.355,-17.048 -3.399,-4.677 -10.48,-6.251 -14.567,-10.327 -4.076,-4.087 -5.65,-11.168 -10.327,-14.567 -4.666,-3.399 -11.879,-2.721 -17.048,-5.355 -5.114,-2.612 -8.786,-8.863 -14.327,-10.655 -5.442,-1.77 -12.086,1.115 -17.867,0.197 -5.628,-0.874 -11.048,-5.683 -16.928,-5.683 -5.879,0 -11.3,4.808 -16.928,5.683 -5.781,0.918 -12.425,-1.967 -17.867,-0.197 -5.541,1.792 -9.212,8.043 -14.327,10.655 -5.169,2.634 -12.382,1.956 -17.048,5.355 -4.677,3.399 -6.251,10.48 -10.327,14.567 -4.087,4.076 -11.168,5.65 -14.567,10.327 -3.399,4.666 -2.721,11.879 -5.355,17.048 -2.612,5.114 -8.863,8.786 -10.655,14.327 -1.77,5.442 1.115,12.086 0.197,17.867 -0.874,5.628 -5.683,11.048 -5.683,16.928 0,5.879 4.808,11.3 5.683,16.928 0.918,5.781 -1.967,12.425 -0.197,17.867 1.792,5.541 8.043,9.212 10.655,14.327 2.634,5.169 1.956,12.382 5.355,17.048 3.399,4.677 10.48,6.251 14.567,10.327 4.076,4.087 5.65,11.169 10.327,14.567 4.666,3.399 11.879,2.721 17.048,5.355 5.114,2.612 8.786,8.863 14.327,10.655 5.442,1.77 12.086,-1.115 17.867,-0.197 5.628,0.874 11.048,5.683 16.928,5.683 5.879,0 11.3,-4.808 16.928,-5.683 5.781,-0.918 12.425,1.967 17.867,0.197 5.541,-1.792 9.212,-8.043 14.327,-10.655 5.169,-2.634 12.382,-1.956 17.048,-5.355 4.677,-3.399 6.251,-10.48 10.327,-14.567 4.087,-4.076 11.169,-5.65 14.567,-10.327 3.399,-4.666 2.721,-11.879 5.355,-17.048 2.612,-5.114 8.863,-8.786 10.655,-14.327 1.77,-5.441 -1.115,-12.086 -0.197,-17.867 z m -52.029,-93.337 23.135,20.031 -86.474,99.85 -38.664,-38.664 21.638,-21.627 15.42,15.409 z m -54.848,164.654 c -48.739,0 -88.244,-39.505 -88.244,-88.244 0,-48.739 39.505,-88.244 88.244,-88.244 15.048,0 29.222,3.77 41.614,10.415 l -8.83,10.207 c -9.912,-4.808 -21.026,-7.508 -32.784,-7.508 -41.494,0 -75.131,33.637 -75.131,75.131 0,41.494 33.637,75.131 75.131,75.131 41.494,0 75.131,-33.637 75.131,-75.131 0,-10.458 -2.142,-20.414 -6,-29.462 l 9.387,-10.852 c 6.218,12.076 9.726,25.79 9.726,40.314 0.001,48.738 -39.504,88.243 -88.244,88.243 z"
   id="path115447" />
		</g></g></g></svg>
